<svg xmlns="http://www.w3.org/2000/svg" style="display:none"><defs><style>.fil1{fill:#fefefe}</style><linearGradient gradientUnits="userSpaceOnUse" id="a" x1="7.69" x2="56.31" y1="7.69" y2="56.31"><stop offset="0" stop-color="#009444"/><stop offset="1" stop-color="#006838"/></linearGradient></defs><symbol id="icon-camera-2" viewBox="0 0 512 512"><path d="M512 74.667V160H0V74.667C0 33.429 33.429 0 74.667 0h362.667C478.571 0 512 33.429 512 74.667z" fill="#795548"/><path d="M512 160v277.333C512 478.571 478.571 512 437.333 512H74.667C33.429 512 0 478.571 0 437.333V160h512z" fill="#bdbdbd"/><path d="M373.333 42.667h64c5.891 0 10.667 4.776 10.667 10.667v64c0 5.891-4.776 10.667-10.667 10.667h-64c-5.891 0-10.667-4.776-10.667-10.667v-64c.001-5.892 4.776-10.667 10.667-10.667z" fill="#37474f"/><path d="M53.333 106.667c-5.891 0-10.667-4.776-10.667-10.667V21.333c0-5.891 4.776-10.667 10.667-10.667S64 15.442 64 21.333V96c0 5.891-4.776 10.667-10.667 10.667z" fill="#f44336"/><path d="M96 106.667c-5.891 0-10.667-4.776-10.667-10.667V10.667C85.333 4.776 90.109 0 96 0s10.667 4.776 10.667 10.667V96c0 5.891-4.776 10.667-10.667 10.667z" fill="#ffc107"/><path d="M138.667 106.667C132.776 106.667 128 101.891 128 96V10.667C128 4.776 132.776 0 138.667 0s10.667 4.776 10.667 10.667V96c-.001 5.891-4.776 10.667-10.667 10.667z" fill="#4caf50"/><circle cx="256" cy="256" r="117.333" fill="#455a64"/><path d="M256 384c-70.692 0-128-57.308-128-128s57.308-128 128-128 128 57.308 128 128c-.082 70.658-57.342 127.918-128 128zm0-234.667c-58.91 0-106.667 47.756-106.667 106.667S197.09 362.667 256 362.667 362.667 314.91 362.667 256c-.071-58.881-47.786-106.596-106.667-106.667z" fill="#8d6e63"/><circle cx="256" cy="256" r="64" fill="#37474f"/></symbol><symbol id="icon-camera" viewBox="0 0 512 512"><path d="M419.848 512H92.152C41.258 512 0 470.742 0 419.848V92.152C0 41.258 41.258 0 92.152 0h327.696C470.742 0 512 41.258 512 92.152v327.696C512 470.742 470.742 512 419.848 512z" fill="#d66274"/><path d="M512 419.848V273.432c-150.331 82.876-320.856-2.103-512 99.875v46.542C0 470.742 41.258 512 92.152 512h327.697C470.742 512 512 470.742 512 419.848z" fill="#e38892"/><path d="M79.374 156.598h86.05c8.099 0 14.665-6.566 14.665-14.665V106.97c0-8.099-6.566-14.665-14.665-14.665h-86.05c-8.099 0-14.665 6.566-14.665 14.665v34.963c0 8.099 6.566 14.665 14.665 14.665z" fill="#bbe0f1"/><path d="M505.644 453.471C147.071 439.464 153.221 157.112 179.596 0H92.152C41.258 0 0 41.258 0 92.152v327.697C0 470.742 41.258 512 92.152 512h327.697c39.024 0 72.358-24.27 85.795-58.529z" opacity=".15" fill="#812b2f"/><circle cx="256" cy="256" r="152.75" fill="#f0f2ff"/><circle cx="256" cy="256" r="97.56" fill="#6b7bab"/><circle cx="425.42" cy="86.58" r="37.872" fill="#f8e47c"/><path d="M353.561 256c0-53.881-43.68-97.561-97.561-97.561-25.567 0-48.825 9.846-66.221 25.939 69.32-16.634 160.619 34.421 137.458 138.247 16.318-17.44 26.324-40.858 26.324-66.625z" opacity=".2" fill="#254a74"/></symbol><symbol id="icon-email-1" viewBox="0 0 511.999 511.999"><path d="M469.592 161.546s-84.75-77.878-127.125-121.398S255.999.064 255.999.064s-44.093-3.437-86.468 40.084S42.406 161.546 42.406 161.546L32.099 199.34v312.659H479.9V199.34l-10.308-37.794z" fill="#d89932"/><path d="M443.251 346.352c0 7.18-5.82 13-13 13H90.909c-7.18 0-13-5.82-13-13V108.12c0-7.18 5.82-13 13-13h339.342c7.18 0 13 5.82 13 13v238.232z" fill="#e2e5e7"/><path opacity=".07" fill="#2d404e" d="M189.383 330.665l15.647-.763L71.42 204.685l-39.321-5.345zM322.521 330.665l-15.647-.763 133.61-125.217 39.321-5.345z"/><path fill="#f2b643" d="M32.099 199.34v312.658l157.412-181.526L69.893 207.739zM479.805 199.34v312.658L322.394 330.472l119.617-122.733z"/><path opacity=".54" fill="#d89932" d="M32.099 511.998v-37.793l151.985-149.301 5.427 5.568zM479.805 511.998v-37.793L327.821 324.904l-5.427 5.568z"/><path d="M468.685 475.922S347.826 349.371 336.889 339.064c-10.938-10.307-19.688-9.161-19.688-9.161H194.702s-8.75-1.146-19.688 9.161C164.076 349.372 43.219 475.922 43.219 475.922l-10.392 36.076h446.249l-10.391-36.076z" fill="#f2b643"/><g fill="#d1d5d5"><path d="M132.133 226.84l29.855-55.562 12.741 30.735s-.289-13.965 9.309-13.743 16.927 38.57 16.927 38.57h-68.832z"/><circle cx="180.515" cy="177.364" r="6.087"/></g><path d="M373.652 183.307a5.727 5.727 0 0 1-5.727 5.727H255.376a5.727 5.727 0 0 1-5.727-5.727v-.216a5.728 5.728 0 0 1 5.727-5.727h112.549a5.727 5.727 0 0 1 5.727 5.727v.216zM373.652 205.282a5.727 5.727 0 0 1-5.727 5.727H255.376a5.727 5.727 0 0 1-5.727-5.727v-.216a5.728 5.728 0 0 1 5.727-5.727h112.549a5.727 5.727 0 0 1 5.727 5.727v.216zM373.652 227.259a5.726 5.726 0 0 1-5.727 5.726H255.376a5.726 5.726 0 0 1-5.727-5.726v-.216a5.727 5.727 0 0 1 5.727-5.727h112.549a5.726 5.726 0 0 1 5.727 5.727v.216z" fill="#d1d5d5"/><path fill="#df584c" d="M166.55 95.12l-13.923 25.578h22.102l13.923-25.578z"/><path fill="#e2e5e7" d="M144.447 95.12l-13.922 25.578h22.102L166.55 95.12zM188.652 95.12l-13.923 25.578h22.103l13.922-25.578zM232.857 95.12l-13.923 25.578h22.103l13.922-25.578z"/><path fill="#df584c" d="M77.91 95.12v25.578h8.41l13.923-25.578z"/><path fill="#e2e5e7" d="M100.243 95.12L86.32 120.698h22.102l13.923-25.578zM365.471 95.12l-13.922 25.578h22.103l13.922-25.578zM409.676 95.12l-13.923 25.578h22.103l13.923-25.578z"/><path fill="#df584c" d="M254.959 95.12l-13.922 25.578h22.102l13.923-25.578zM431.779 95.12l-13.923 25.578h25.395V95.12zM343.369 95.12l-13.922 25.578h22.102l13.922-25.578z"/><path fill="#e2e5e7" d="M277.062 95.12l-13.923 25.578h22.103l13.922-25.578z"/><g fill="#2d404e"><path d="M210.754 95.12l-13.922 25.578h22.102l13.923-25.578zM122.345 95.12l-13.923 25.578h22.103l13.922-25.578zM387.574 95.12l-13.922 25.578h22.101l13.923-25.578zM299.164 95.12l-13.922 25.578h22.102l13.922-25.578z"/></g><path fill="#e2e5e7" d="M321.266 95.12l-13.922 25.578h22.103l13.922-25.578z"/></symbol><symbol id="icon-email-2" viewBox="0 0 512 512"><g fill="#ff9e24"><path d="M222.987 256L3.494 434.047A12.058 12.058 0 0 1 0 425.555V86.446c0-3.3 1.335-6.309 3.494-8.493L222.987 256zM512 86.446v339.109c0 3.3-1.335 6.309-3.494 8.493L289.013 256 508.506 77.953A12.058 12.058 0 0 1 512 86.446z"/></g><path d="M499.867 74.313H12.133c-3.373 0-6.43 1.395-8.638 3.64L256 340.929 508.506 77.953c-2.208-2.245-5.266-3.64-8.639-3.64z" fill="#ffe1d6"/><path d="M337.544 256l170.962 178.047c-2.208 2.245-5.266 3.64-8.638 3.64H12.133c-3.373 0-6.43-1.395-8.638-3.64L174.456 256 256 340.929 337.544 256z" fill="#ffb14d"/></symbol><symbol id="icon-facebook-2" viewBox="0 0 512 512"><path d="M476.69 512H35.31C15.89 512 0 496.11 0 476.69V35.31C0 15.89 15.89 0 35.31 0h441.38C496.11 0 512 15.89 512 35.31v441.38c0 19.42-15.89 35.31-35.31 35.31" fill="#4d6fa9"/><path d="M432.552 88.276v88.276h-79.448c-9.71 0-17.655 7.945-17.655 17.655v52.966h88.276v88.276h-88.276V512h-88.276V335.448h-70.621v-88.276h70.621v-52.966c0-55.614 42.372-101.517 97.103-105.931h88.276z" fill="#fff"/></symbol><symbol id="icon-facebook-3" viewBox="0 0 512 512"><path d="M512 256c0 141.387-114.613 256-256 256S0 397.387 0 256 114.613 0 256 0s256 114.613 256 256zm0 0" fill="#4a7aff"/><path d="M267.234 511.738C403.406 505.86 512 393.618 512 256c0-.996-.027-1.988-.04-2.984L334.263 75.312l-190 198.594 105.566 105.567-48.676 66.183zm0 0" fill="#0053bf"/><path d="M334.262 75.313v57.968s-66.555-9.66-66.555 33.278v42.937h60.113l-7.511 65.48h-52.602v170.68h-66.555v-170.68l-56.894-1.074v-64.406h55.82v-49.379s-3.683-73.457 68.703-86.949c30.059-5.605 65.48 2.145 65.48 2.145zm0 0" fill="#fff"/><path d="M334.262 133.281V75.312s-35.422-7.75-65.48-2.144a101.494 101.494 0 0 0-13.137 3.348v369.14h12.062v-170.68h52.598l7.515-65.48h-60.113V166.56c0-42.937 66.555-33.278 66.555-33.278zm0 0" fill="#dce1eb"/></symbol><symbol id="icon-facebook" viewBox="0 0 408.788 408.788"><path d="M353.701 0H55.087C24.665 0 .002 24.662.002 55.085v298.616c0 30.423 24.662 55.085 55.085 55.085h147.275l.251-146.078h-37.951a8.954 8.954 0 0 1-8.954-8.92l-.182-47.087a8.955 8.955 0 0 1 8.955-8.989h37.882v-45.498c0-52.8 32.247-81.55 79.348-81.55h38.65a8.955 8.955 0 0 1 8.955 8.955v39.704a8.955 8.955 0 0 1-8.95 8.955l-23.719.011c-25.615 0-30.575 12.172-30.575 30.035v39.389h56.285c5.363 0 9.524 4.683 8.892 10.009l-5.581 47.087a8.955 8.955 0 0 1-8.892 7.901h-50.453l-.251 146.078h87.631c30.422 0 55.084-24.662 55.084-55.084V55.085C408.786 24.662 384.124 0 353.701 0z" fill="#475993"/></symbol><symbol id="icon-gg" viewBox="0 0 36.406 36.406"><path d="M27.955 19.015l-8.984 8.539-8.984 8.539a1.105 1.105 0 0 1-1.571-.032 1.13 1.13 0 0 1-.317-.776V1.127C8.099.508 8.607 0 9.226 0c.317 0 .619.143.825.365l8.92 8.492 8.984 8.539c.444.429.476 1.127.048 1.587-.016.017-.032.017-.048.032zm-10.523 6.921l8.142-7.73-8.142-7.73-7.095-6.746v28.952l7.095-6.746z" fill="#1e201d"/></symbol><symbol id="icon-gr" viewBox="0 0 551.034 551.034"><linearGradient id="a" gradientUnits="userSpaceOnUse" x1="275.517" y1="4.57" x2="275.517" y2="549.72" gradientTransform="matrix(1 0 0 -1 0 554)"><stop offset="0" stop-color="#e09b3d"/><stop offset=".3" stop-color="#c74c4d"/><stop offset=".6" stop-color="#c21975"/><stop offset="1" stop-color="#7024c4"/></linearGradient><path d="M386.878 0H164.156C73.64 0 0 73.64 0 164.156v222.722c0 90.516 73.64 164.156 164.156 164.156h222.722c90.516 0 164.156-73.64 164.156-164.156V164.156C551.033 73.64 477.393 0 386.878 0zM495.6 386.878c0 60.045-48.677 108.722-108.722 108.722H164.156c-60.045 0-108.722-48.677-108.722-108.722V164.156c0-60.046 48.677-108.722 108.722-108.722h222.722c60.045 0 108.722 48.676 108.722 108.722v222.722z" fill="url(#a)"/><linearGradient id="b" gradientUnits="userSpaceOnUse" x1="275.517" y1="4.57" x2="275.517" y2="549.72" gradientTransform="matrix(1 0 0 -1 0 554)"><stop offset="0" stop-color="#e09b3d"/><stop offset=".3" stop-color="#c74c4d"/><stop offset=".6" stop-color="#c21975"/><stop offset="1" stop-color="#7024c4"/></linearGradient><path d="M275.517 133C196.933 133 133 196.933 133 275.516s63.933 142.517 142.517 142.517S418.034 354.1 418.034 275.516 354.101 133 275.517 133zm0 229.6c-48.095 0-87.083-38.988-87.083-87.083s38.989-87.083 87.083-87.083c48.095 0 87.083 38.988 87.083 87.083 0 48.094-38.989 87.083-87.083 87.083z" fill="url(#b)"/><linearGradient id="c" gradientUnits="userSpaceOnUse" x1="418.31" y1="4.57" x2="418.31" y2="549.72" gradientTransform="matrix(1 0 0 -1 0 554)"><stop offset="0" stop-color="#e09b3d"/><stop offset=".3" stop-color="#c74c4d"/><stop offset=".6" stop-color="#c21975"/><stop offset="1" stop-color="#7024c4"/></linearGradient><circle cx="418.31" cy="134.07" r="34.15" fill="url(#c)"/></symbol><symbol id="icon-kak" viewBox="0 0 46.001 46.001"><path fill="#030104" d="M3.004 0L3 46.001l40-23.004z"/></symbol><symbol id="icon-phone-2" viewBox="0 0 201 201"><g id="Layer_x0020_1"><g id="_320501824"><rect height="201" rx="19" ry="19" width="201" fill="#2dc100"/><path class="fil1" d="M107 34c37 5 54 23 59 60 0 4 0 8 4 8s4-3 4-6v-2c1-35-30-67-66-68-3 0-9-2-9 4 0 4 5 3 8 4z"/><path class="fil1" d="M114 44c-4-1-8-2-9 2-1 6 4 5 8 6 23 5 31 13 35 36v3c0 2 1 5 5 4 2 0 3-1 3-3v-4c0-22-19-42-42-44z"/><path class="fil1" d="M116 61c-2 0-5 1-5 3-2 4 1 5 4 5 9 2 14 7 15 16 0 2 1 3 1 4 1 0 2 1 4 1l1-1c2-1 2-3 2-5 0-11-12-23-22-23zM164 134c-5-4-10-7-14-10-10-7-19-7-27 3-4 6-9 7-15 4-17-7-30-19-37-35-1-3-2-5-2-8-1-4 1-8 6-11 4-3 8-6 8-12 0-8-20-34-27-37-3-1-6-1-10 0-18 6-25 21-18 38 4 9 9 18 14 26 22 37 54 64 96 81 3 2 6 2 7 3 12 0 26-11 30-22 3-11-5-15-11-20z"/></g></g></symbol><symbol id="icon-phone-3" viewBox="0 0 64 64"><rect height="58" rx="16.02" ry="16.02" width="58" x="3" y="3" fill="url(#a)"/><path d="M49.43 44.11a4 4 0 0 1-2.12 3 18 18 0 0 1-21.23-3.24l-4.65-4.66A18 18 0 0 1 18.2 18a4 4 0 0 1 2.95-2.12A3.9 3.9 0 0 1 24.54 17a4 4 0 0 1 .72 4.75 10.09 10.09 0 0 0 1.83 11.82l4.65 4.65A10.11 10.11 0 0 0 43.56 40a4 4 0 0 1 4.72.67 4 4 0 0 1 1.15 3.44z" fill="#fff"/></symbol><symbol id="icon-phone" viewBox="0 0 512 512"><circle cx="256" cy="256" r="256" fill="#6aaf50"/><path d="M135.693 102.206l-.008.004c-29.639 15.464-42.074 51.222-28.494 81.77a454.997 454.997 0 0 0 77.468 119.423l23.939 23.939 159.073 159.073c39.82-19.335 73.863-48.69 98.876-84.783l-58.697-58.697a32.553 32.553 0 0 0-8.681-8.681L177.747 112.833c-9.294-13.695-27.382-18.283-42.054-10.627z" fill="#4d8538"/><path d="M349.593 300.614a24.052 24.052 0 0 0-27.116.071l-11.752 8.066c-13.09 8.984-30.498 8.496-43.08-1.187a402.081 402.081 0 0 1-33.924-29.283 401.742 401.742 0 0 1-29.283-33.924c-9.684-12.581-10.171-29.989-1.187-43.08l8.066-11.752a24.054 24.054 0 0 0 .071-27.116l-33.64-49.575c-9.293-13.694-27.381-18.282-42.054-10.627l-.009.004c-29.639 15.464-42.074 51.222-28.494 81.77a454.997 454.997 0 0 0 77.468 119.423l23.939 23.939a455.055 455.055 0 0 0 119.423 77.468c30.549 13.58 66.306 1.145 81.77-28.494l.004-.009c7.655-14.672 3.068-32.761-10.627-42.054l-49.575-33.64z" fill="#fff"/></symbol><symbol id="icon-round-play-button"><path fill="#444" d="M8 0C3.6 0 0 3.6 0 8s3.6 8 8 8 8-3.6 8-8-3.6-8-8-8zM6 12V4l6 4-6 4z"/></symbol></svg>